<?xml version="1.0" encoding="UTF-8"?>
<svg version="1.1" xmlns="http://www.w3.org/2000/svg" width="178" height="292">
<path d="M0 0 C0.91644287 0.00523682 1.83288574 0.01047363 2.77709961 0.01586914 C4.26113281 0.02070313 4.26113281 0.02070313 5.77514648 0.02563477 C6.81606445 0.03401367 7.85698242 0.04239258 8.92944336 0.05102539 C10.49662109 0.05779297 10.49662109 0.05779297 12.09545898 0.06469727 C14.68600996 0.07652627 17.27644895 0.0930085 19.86694336 0.11352539 C19.19080438 6.09865333 18.18564941 11.94929961 16.99682617 17.85229492 C16.8096402 18.79348175 16.62245422 19.73466858 16.42959595 20.70437622 C15.81264501 23.80228169 15.19149919 26.89932821 14.57006836 29.99633789 C14.13490259 32.17419125 13.69990799 34.35207882 13.26507568 36.52999878 C12.35234019 41.09809507 11.43752473 45.66576859 10.52124023 50.2331543 C9.35981874 56.02331557 8.20350652 61.81448247 7.04881668 67.60598946 C6.15002294 72.11093229 5.24841821 76.61530924 4.34603119 81.11953354 C3.91948029 83.25031581 3.49375511 85.38126358 3.06894684 87.51239395 C0.22542249 101.76697933 -2.83785999 115.95634343 -6.13305664 130.11352539 C-0.95523793 130.13726811 4.2225311 130.15641886 9.40039062 130.16845703 C11.16081341 130.17347709 12.92123204 130.18029449 14.68164062 130.18896484 C17.21607489 130.20113242 19.7504539 130.20677705 22.28491211 130.21118164 C23.46019722 130.21892357 23.46019722 130.21892357 24.65922546 130.2268219 C28.52285475 130.22721605 32.11210836 130.05795299 35.86694336 129.11352539 C36.03822754 128.2757959 36.20951172 127.43806641 36.38598633 126.57495117 C37.02480619 123.46884593 37.67037114 120.36424238 38.32055664 117.26049805 C38.60061747 115.91666039 38.87797916 114.57225729 39.15258789 113.22729492 C39.54766907 111.29467758 39.95325621 109.36421731 40.35913086 107.43383789 C40.72047119 105.68997803 40.72047119 105.68997803 41.08911133 103.91088867 C41.86694336 101.11352539 41.86694336 101.11352539 43.86694336 99.11352539 C46.47279492 98.32106887 49.03592077 97.62410072 51.67944336 96.98852539 C52.39165039 96.80676758 53.10385742 96.62500977 53.83764648 96.43774414 C57.60914578 95.50969714 60.99668233 95.02721233 64.86694336 95.11352539 C64.28205227 102.96016676 62.9021503 110.54088973 61.30444336 118.23852539 C60.95349609 119.95942383 60.95349609 119.95942383 60.59545898 121.71508789 C60.02370712 124.51550519 59.44745545 127.31491336 58.86694336 130.11352539 C59.46384979 130.11130478 60.06075623 130.10908417 60.67575073 130.10679626 C66.87212528 130.08472242 73.06848871 130.06960997 79.26489258 130.05859375 C81.57935032 130.05355596 83.89380486 130.04672558 86.20825195 130.03808594 C89.52938626 130.02599616 92.85047861 130.02029164 96.17163086 130.01586914 C97.73105911 130.00812721 97.73105911 130.00812721 99.32199097 130.00022888 C100.282836 130.00015335 101.24368103 130.00007782 102.23364258 130 C103.50605301 129.99666908 103.50605301 129.99666908 104.8041687 129.99327087 C106.86694336 130.11352539 106.86694336 130.11352539 108.86694336 131.11352539 C108.28138329 137.26190609 107.26217975 143.10056479 105.86694336 149.11352539 C68.98989778 150.30740942 68.98989778 150.30740942 53.86694336 150.11352539 C53.74456299 151.38301025 53.62218262 152.65249512 53.49609375 153.96044922 C52.90825874 159.23386226 51.88693506 164.37268346 50.80053711 169.56274414 C50.39306145 171.56588255 49.98617915 173.56914173 49.57983398 175.57250977 C48.94511918 178.68248999 48.3064441 181.79145036 47.65722656 184.8984375 C42.41636514 205.38823796 42.41636514 205.38823796 46.86694336 225.11352539 C48.70819504 226.40307868 48.70819504 226.40307868 50.80444336 226.92602539 C51.4734668 227.1387207 52.14249023 227.35141602 52.83178711 227.57055664 C53.50338867 227.74973633 54.17499023 227.92891602 54.86694336 228.11352539 C55.47538086 228.30946289 56.08381836 228.50540039 56.71069336 228.70727539 C64.61361317 230.1962313 73.71280944 228.16206707 81.46459961 226.41821289 C83.86694336 226.11352539 83.86694336 226.11352539 88.86694336 227.11352539 C88.53694336 233.05352539 88.20694336 238.99352539 87.86694336 245.11352539 C73.13670255 250.02360566 52.03113136 251.1416505 37.32397461 245.36743164 C29.66811628 241.46038788 25.25512903 237.11138857 21.86694336 229.11352539 C17.65651256 214.32608784 22.08171072 197.66265747 25.24194336 183.11352539 C25.66038214 181.12561633 26.0770562 179.13733497 26.49194336 177.14868164 C27.0777959 174.34217868 27.66572776 171.53639172 28.26815796 168.73339844 C29.59765582 162.53933804 30.73207534 156.35529952 31.86694336 150.11352539 C10.74694336 150.11352539 -10.37305664 150.11352539 -32.13305664 150.11352539 C-31.45294712 142.63232068 -30.60091561 135.61824658 -29.09521484 128.3190918 C-28.89012802 127.3009288 -28.6850412 126.28276581 -28.47373962 125.23374939 C-27.79936608 121.89303538 -27.1166828 118.5540797 -26.43383789 115.21508789 C-25.95589926 112.85657633 -25.47846624 110.49796226 -25.00151062 108.13925171 C-23.74482967 101.93187067 -22.4810137 95.72596303 -21.21575928 89.52032471 C-19.94992689 83.30491615 -18.69129936 77.08804941 -17.43188477 70.87133789 C-15.08098579 59.27293017 -12.71888908 47.6768368 -10.35089111 36.08190918 C-9.42533617 31.548998 -8.50365824 27.0153167 -7.58446598 22.48111153 C-6.88880354 19.0532845 -6.18844228 15.62642369 -5.48852539 12.19946289 C-5.25410233 11.03782623 -5.01967926 9.87618958 -4.77815247 8.67935181 C-4.56937973 7.66295624 -4.36060699 6.64656067 -4.14550781 5.59936523 C-3.97137863 4.74369965 -3.79724945 3.88803406 -3.61784363 3.00643921 C-2.94130344 0.36480009 -2.76075125 0.14693251 0 0 Z " fill="#FCFEFD" transform="translate(50.133056640625,20.886474609375)"/>
<path d="M0 0 C2 3 2 3 1.8125 6 C0.96247105 9.13856842 0.49734872 10.05376328 -2 12 C-3.95524597 12.36076355 -3.95524597 12.36076355 -6.19604492 12.34057617 C-7.03668991 12.34034958 -7.8773349 12.34012299 -8.74345398 12.33988953 C-9.64666885 12.32440567 -10.54988373 12.30892181 -11.48046875 12.29296875 C-12.40845779 12.28872391 -13.33644684 12.28447906 -14.29255676 12.28010559 C-17.25783243 12.26330662 -20.2224296 12.22565216 -23.1875 12.1875 C-25.19725581 12.17245474 -27.20702227 12.15876606 -29.21679688 12.14648438 C-34.14479286 12.11339908 -39.07228138 12.06160833 -44 12 C-46.109375 7.2890625 -46.109375 7.2890625 -45.125 4.6875 C-44.75375 4.130625 -44.3825 3.57375 -44 3 C-43.06576355 6.01031744 -42.95550089 6.86650268 -44 10 C-38.82218777 10.02477057 -33.64441025 10.04289347 -28.46655273 10.05493164 C-26.70612995 10.0599517 -24.94571132 10.0667691 -23.18530273 10.07543945 C-20.65086846 10.08760703 -18.11648946 10.09325166 -15.58203125 10.09765625 C-14.40674614 10.10539818 -14.40674614 10.10539818 -13.2077179 10.11329651 C-9.34408861 10.11369066 -5.754835 9.9444276 -2 9 C-1.34 6.03 -0.68 3.06 0 0 Z " fill="#EBFEFF" transform="translate(88,141)"/>
<path d="M0 0 C0.66 0 1.32 0 2 0 C1.32336749 4.29401403 0.45910148 8.51077146 -0.5 12.75 C-1.75041497 18.49580928 -2.60811472 24.13523415 -3 30 C-3.66 30 -4.32 30 -5 30 C-4.5406054 19.7784702 -2.21710983 9.95121391 0 0 Z " fill="#ECFDFE" transform="translate(82,172)"/>
<path d="M0 0 C0.66 0.33 1.32 0.66 2 1 C1.34 1.66 0.68 2.32 0 3 C-0.39764263 4.98821313 -0.71325582 6.99279077 -1 9 C-1.29779658 10.7733652 -1.61115506 12.54416578 -1.9375 14.3125 C-2.09089844 15.17488281 -2.24429688 16.03726563 -2.40234375 16.92578125 C-2.59957031 17.61027344 -2.79679687 18.29476562 -3 19 C-3.66 19.33 -4.32 19.66 -5 20 C-3.42105263 3.42105263 -3.42105263 3.42105263 0 0 Z " fill="#E9FDFF" transform="translate(94,120)"/>
<path d="M0 0 C1.05078125 1.85546875 1.05078125 1.85546875 2 4 C1.1875 6.3125 1.1875 6.3125 0 9 C-1.09314473 13.62123492 -1.09314473 13.62123492 0 18 C-0.66 18 -1.32 18 -2 18 C-2.33 19.65 -2.66 21.3 -3 23 C-4.01498547 19.82540369 -3.94466465 17.69122329 -3.22265625 14.453125 C-3.03896484 13.60878906 -2.85527344 12.76445313 -2.66601562 11.89453125 C-2.46685547 11.02183594 -2.26769531 10.14914063 -2.0625 9.25 C-1.86720703 8.36183594 -1.67191406 7.47367188 -1.47070312 6.55859375 C-0.98838288 4.37050678 -0.49790968 2.1845827 0 0 Z " fill="#EDFDFE" transform="translate(45,32)"/>
<path d="M0 0 C0.66 0.33 1.32 0.66 2 1 C3.66565749 1.15222973 5.33656496 1.24917215 7.0078125 1.31640625 C7.99394531 1.35830078 8.98007813 1.40019531 9.99609375 1.44335938 C11.54490234 1.50233398 11.54490234 1.50233398 13.125 1.5625 C14.68541016 1.62727539 14.68541016 1.62727539 16.27734375 1.69335938 C18.85142528 1.7996288 21.42560508 1.90166583 24 2 C24 2.33 24 2.66 24 3 C15.75 3 7.5 3 -1 3 C-0.67 2.01 -0.34 1.02 0 0 Z " fill="#EAFEFE" transform="translate(100,266)"/>
<path d="M0 0 C0.33 0 0.66 0 1 0 C0.67 2.97 0.34 5.94 0 9 C-4.62 9 -9.24 9 -14 9 C-9.78370866 6.89185433 -7.60209225 6.82299645 -3 7 C-2.01 4.69 -1.02 2.38 0 0 Z " fill="#EBFDFE" transform="translate(156,161)"/>
</svg>
