<?xml version="1.0" encoding="UTF-8"?>
<svg version="1.1" xmlns="http://www.w3.org/2000/svg" width="230" height="344">
<path d="M0 0 C1.5631897 0.00785522 1.5631897 0.00785522 3.15795898 0.01586914 C4.28266602 0.0190918 5.40737305 0.02231445 6.56616211 0.02563477 C7.75016602 0.03401367 8.93416992 0.04239258 10.15405273 0.05102539 C11.34192383 0.05553711 12.52979492 0.06004883 13.75366211 0.06469727 C16.69967741 0.07652865 19.6455824 0.09385016 22.59155273 0.11352539 C21.28980591 9.0779632 19.7045901 17.950318 17.90185547 26.82666016 C17.63692396 28.14221703 17.37225292 29.45782638 17.1078186 30.77348328 C16.39777502 34.30234232 15.68407909 37.83045319 14.96961093 41.3584187 C14.21931556 45.06632719 13.47230041 48.77489658 12.72486877 52.48338318 C11.47189042 58.69782147 10.2166965 64.91180877 8.95996094 71.12548828 C7.34753835 79.09784704 5.73876903 87.07093843 4.13114834 95.0442667 C2.74535864 101.91725809 1.3579671 108.78992597 -0.0297153 115.66253543 C-0.47447581 117.86556075 -0.91902836 120.06862796 -1.36355782 122.27169991 C-2.19057017 126.36968682 -3.01924867 130.46733505 -3.84814453 134.56494141 C-4.21674339 136.39223282 -4.21674339 136.39223282 -4.5927887 138.25643921 C-4.8184552 139.37064743 -5.0441217 140.48485565 -5.27662659 141.63282776 C-5.47221444 142.60041802 -5.6678023 143.56800829 -5.86931705 144.56491947 C-6.33339212 146.75872059 -6.86459775 148.93812733 -7.40844727 151.11352539 C9.09155273 151.11352539 25.59155273 151.11352539 42.59155273 151.11352539 C44.14846402 142.96256463 44.14846402 142.96256463 45.70239258 134.81103516 C46.11943638 132.63504377 46.54265722 130.46023084 46.97070312 128.28637695 C47.35900784 126.30194593 47.73298051 124.31459478 48.08544922 122.32348633 C48.48258311 120.23083982 49.02355721 118.1663931 49.59155273 116.11352539 C52.55802927 114.43438773 54.34938265 113.81252536 57.59155273 113.11352539 C59.19643555 112.70166992 59.19643555 112.70166992 60.83374023 112.28149414 C65.82388282 111.04244513 70.4250774 109.91223414 75.59155273 110.11352539 C74.9657321 115.59281339 74.09907039 120.93763191 72.96264648 126.33227539 C72.75774597 127.32275879 72.75774597 127.32275879 72.54870605 128.33325195 C72.04558927 130.7607241 71.53701583 133.18706274 71.02905273 135.61352539 C69.89467773 141.05852539 68.76030273 146.50352539 67.59155273 152.11352539 C86.73155273 152.11352539 105.87155273 152.11352539 125.59155273 152.11352539 C124.59155273 163.11352539 124.59155273 163.11352539 122.59155273 172.11352539 C103.12155273 172.44352539 83.65155273 172.77352539 63.59155273 173.11352539 C62.04418622 180.80834803 60.49719703 188.50323004 58.95378876 196.19884491 C58.23485186 199.78299525 57.51523694 203.36700632 56.79394531 206.95068359 C56.09846257 210.40626972 55.40489292 213.86223492 54.71261406 217.31846428 C54.32120019 219.27007314 53.92783729 221.22129078 53.53443909 223.17250061 C49.37204737 240.95172829 49.37204737 240.95172829 53.59155273 258.11352539 C57.93285373 262.57215885 62.82261543 264.16189246 68.95483398 264.41430664 C70.60447432 264.43281944 72.25433891 264.43603714 73.90405273 264.42602539 C74.77328369 264.42546143 75.64251465 264.42489746 76.53808594 264.42431641 C84.04020383 264.31999722 91.15242016 263.21116354 98.47827148 261.67211914 C100.0193457 261.39561523 100.0193457 261.39561523 101.59155273 261.11352539 C102.59155273 262.11352539 102.59155273 262.11352539 102.70507812 264.06298828 C102.69984131 264.89564209 102.69460449 265.7282959 102.68920898 266.58618164 C102.68598633 267.48530273 102.68276367 268.38442383 102.67944336 269.31079102 C102.67106445 270.25631836 102.66268555 271.2018457 102.65405273 272.17602539 C102.64954102 273.12541992 102.6450293 274.07481445 102.64038086 275.05297852 C102.62855384 277.40655604 102.61207299 279.76001016 102.59155273 282.11352539 C92.77050044 286.34633565 82.19631944 286.45490831 71.65405273 286.42602539 C70.48165039 286.44213867 69.30924805 286.45825195 68.10131836 286.47485352 C56.03797677 286.48151467 44.24869128 284.86372897 34.59155273 277.11352539 C26.28060489 268.60889021 24.42953672 258.40913508 24.47616577 246.86877441 C24.66600741 242.33567136 25.46226939 237.9565934 26.29858398 233.50415039 C26.56696831 232.02147675 26.56696831 232.02147675 26.84077454 230.5088501 C27.41263997 227.37476531 27.99947491 224.24385098 28.59155273 221.11352539 C28.78295837 220.0987915 28.97436401 219.08405762 29.17156982 218.03857422 C30.31900229 211.98439808 31.49323264 205.93576475 32.68359375 199.88989258 C33.29237404 196.79582103 33.89626324 193.70081971 34.49975586 190.60571289 C34.88814548 188.62388672 35.27680637 186.64211369 35.66577148 184.66040039 C35.84492599 183.74184265 36.02408051 182.82328491 36.20866394 181.87689209 C36.37586441 181.030401 36.54306488 180.18390991 36.71533203 179.31176758 C36.86093063 178.57061707 37.00652924 177.82946655 37.15653992 177.06585693 C37.59155273 175.11352539 37.59155273 175.11352539 38.59155273 172.11352539 C13.51155273 172.11352539 -11.56844727 172.11352539 -37.40844727 172.11352539 C-33.26096174 150.19110189 -29.10798369 128.28482545 -24.69861221 106.41582489 C-23.97358332 102.81825794 -23.24990742 99.22042052 -22.52660835 95.62250543 C-21.15297561 88.79000333 -19.77706041 81.95796381 -18.3996582 75.1262207 C-16.98313048 68.10015517 -15.57116122 61.07318333 -14.16115391 54.04580665 C-12.93741703 47.94772814 -11.71075076 41.85024389 -10.4817332 35.75322747 C-9.75290277 32.1373663 -9.02523408 28.52128116 -8.30051041 24.90459442 C-7.50108176 20.91575116 -6.69556304 16.92816235 -5.8894043 12.94067383 C-5.65152695 11.7493988 -5.4136496 10.55812378 -5.16856384 9.33074951 C-4.95012314 8.25534912 -4.73168243 7.17994873 -4.50662231 6.07196045 C-4.31752855 5.13277645 -4.12843479 4.19359245 -3.93361092 3.22594833 C-3.19832918 0.26834452 -3.09466619 0.14587124 0 0 Z " fill="#60A4F8" transform="translate(71.408447265625,29.886474609375)"/>
<path d="M0 0 C0.33 0 0.66 0 1 0 C1.02721176 1.89575251 1.04649136 3.79161979 1.0625 5.6875 C1.07410156 6.74324219 1.08570313 7.79898438 1.09765625 8.88671875 C1.00865425 11.72410262 0.64939838 14.2438919 0 17 C-0.66 17 -1.32 17 -2 17 C-2.33 19.97 -2.66 22.94 -3 26 C21.42 26 45.84 26 71 26 C71 26.33 71 26.66 71 27 C45.92 27 20.84 27 -5 27 C-3.35 18.09 -1.7 9.18 0 0 Z " fill="#6B9EDF" transform="translate(39,175)"/>
<path d="M0 0 C0 6.6 0 13.2 0 20 C-0.33 20 -0.66 20 -1 20 C-1.33 16.04 -1.66 12.08 -2 8 C-3.2375 8.020625 -4.475 8.04125 -5.75 8.0625 C-8.6640825 8.06766681 -11.20953327 7.93015558 -14 7 C-14 6.01 -14 5.02 -14 4 C-14.99 3.67 -15.98 3.34 -17 3 C-17 2.67 -17 2.34 -17 2 C-14.54316882 1.47097431 -12.08497874 0.95149191 -9.625 0.4375 C-8.92632812 0.28603516 -8.22765625 0.13457031 -7.5078125 -0.02148438 C-2.2265625 -1.11328125 -2.2265625 -1.11328125 0 0 Z " fill="#659FEC" transform="translate(174,292)"/>
<path d="M0 0 C1.08174162 3.36541838 0.92538169 4.29847322 0 8 C-19.47 8.33 -38.94 8.66 -59 9 C-60.32 15.6 -61.64 22.2 -63 29 C-63.33 29 -63.66 29 -64 29 C-63.9117222 26.83262782 -63.8035391 24.66606326 -63.6875 22.5 C-63.62949219 21.2934375 -63.57148438 20.086875 -63.51171875 18.84375 C-63 15 -63 15 -60 7 C-40.86 7 -21.72 7 -2 7 C-1.67 5.02 -1.34 3.04 -1 1 C-0.67 0.67 -0.34 0.34 0 0 Z " fill="#6FA0E2" transform="translate(194,194)"/>
<path d="M0 0 C0.33 0 0.66 0 1 0 C0.53383715 7.7318735 -0.74548873 15.15735695 -2.37890625 22.71484375 C-3.12384648 26.09783671 -3.12384648 26.09783671 -3 30 C-1.68 29.67 -0.36 29.34 1 29 C1 30.98 1 32.96 1 35 C0.01 35 -0.98 35 -2 35 C-2.33 35.99 -2.66 36.98 -3 38 C-3.99 38 -4.98 38 -6 38 C-6 39.98 -6 41.96 -6 44 C-6.66 44 -7.32 44 -8 44 C-7.40473468 38.07033989 -6.57153756 32.29955709 -5.37109375 26.46484375 C-5.21713638 25.70071671 -5.06317902 24.93658966 -4.90455627 24.14930725 C-4.41919311 21.7446143 -3.92845074 19.34105768 -3.4375 16.9375 C-3.10445888 15.29239031 -2.77177347 13.64720857 -2.43945312 12.00195312 C-1.63040473 8.00045878 -0.81653525 3.99997301 0 0 Z " fill="#6EA2E6" transform="translate(55,96)"/>
<path d="M0 0 C0.75410156 0.00644531 1.50820312 0.01289063 2.28515625 0.01953125 C3.45111328 0.04466797 3.45111328 0.04466797 4.640625 0.0703125 C5.82978516 0.08384766 5.82978516 0.08384766 7.04296875 0.09765625 C8.99231781 0.12114238 10.94151075 0.15701113 12.890625 0.1953125 C3.9149139 5.20960272 -7.40286278 4.46084959 -17.359375 4.3203125 C-18.59300781 4.31128906 -19.82664063 4.30226563 -21.09765625 4.29296875 C-24.10177524 4.26968101 -27.10546443 4.23698006 -30.109375 4.1953125 C-30.109375 3.8653125 -30.109375 3.5353125 -30.109375 3.1953125 C-29.46387695 3.17549316 -28.81837891 3.15567383 -28.15332031 3.13525391 C-25.22160279 3.03984922 -22.29058268 2.93023279 -19.359375 2.8203125 C-17.83570313 2.77390625 -17.83570313 2.77390625 -16.28125 2.7265625 C-15.3015625 2.68789063 -14.321875 2.64921875 -13.3125 2.609375 C-11.96140137 2.56224365 -11.96140137 2.56224365 -10.58300781 2.51416016 C-6.68172315 2.01129026 -4.06295117 -0.06155987 0 0 Z " fill="#6CA1E2" transform="translate(160.109375,311.8046875)"/>
<path d="M0 0 C0.66 0 1.32 0 2 0 C2.66935682 2.25907927 2.99826643 4.06760938 2.9375 6.4375 C3.00863602 9.35407701 3.79532907 11.36478233 5 14 C6.32 13.67 7.64 13.34 9 13 C9.1953125 15.05078125 9.390625 17.1015625 9.5859375 19.15234375 C9.72257812 19.76207031 9.85921875 20.37179687 10 21 C10.66 21.33 11.32 21.66 12 22 C12 22.66 12 23.32 12 24 C5.98120799 21.55079459 3.14057304 15.59221146 0.625 9.875 C-0.10483114 6.51777676 -0.13700805 3.42520118 0 0 Z " fill="#709DDF" transform="translate(97,284)"/>
<path d="M0 0 C0.99 0.99 1.98 1.98 3 3 C2.67 3.99 2.34 4.98 2 6 C1.34 6 0.68 6 0 6 C0.0928125 7.85625 0.0928125 7.85625 0.1875 9.75 C0.20348603 14.81757023 -0.94591254 19.31169152 -2.265625 24.1796875 C-3.11875887 27.45608458 -3.618258 30.64067041 -4 34 C-4.66 34 -5.32 34 -6 34 C-5.3105043 26.52650061 -3.95100009 19.28454667 -2.4375 11.9375 C-2.20353516 10.78572266 -1.96957031 9.63394531 -1.72851562 8.44726562 C-1.15586745 5.63077154 -0.57961941 2.81506618 0 0 Z " fill="#6B9EDE" transform="translate(65,46)"/>
<path d="M0 0 C1.5631897 0.00785522 1.5631897 0.00785522 3.15795898 0.01586914 C4.28266602 0.0190918 5.40737305 0.02231445 6.56616211 0.02563477 C7.75016602 0.03401367 8.93416992 0.04239258 10.15405273 0.05102539 C11.34192383 0.05553711 12.52979492 0.06004883 13.75366211 0.06469727 C16.69967499 0.07652864 19.64558954 0.09301252 22.59155273 0.11352539 C22.26155273 2.75352539 21.93155273 5.39352539 21.59155273 8.11352539 C21.26155273 8.11352539 20.93155273 8.11352539 20.59155273 8.11352539 C20.26155273 5.80352539 19.93155273 3.49352539 19.59155273 1.11352539 C9.19655273 1.60852539 9.19655273 1.60852539 -1.40844727 2.11352539 C-2.06844727 5.41352539 -2.72844727 8.71352539 -3.40844727 12.11352539 C-4.39844727 12.60852539 -4.39844727 12.60852539 -5.40844727 13.11352539 C-5.10085549 11.13358998 -4.78724046 9.1545894 -4.47094727 7.17602539 C-4.29692383 6.07387695 -4.12290039 4.97172852 -3.94360352 3.83618164 C-3.21940408 0.15175093 -3.21940408 0.15175093 0 0 Z " fill="#6C9ED7" transform="translate(71.408447265625,29.886474609375)"/>
<path d="M0 0 C0.33 0 0.66 0 1 0 C1.12375 1.11375 1.2475 2.2275 1.375 3.375 C1.6465813 7.03103677 1.6465813 7.03103677 4 9 C2.625 11 2.625 11 1 13 C0.34 13 -0.32 13 -1 13 C-1 16.3 -1 19.6 -1 23 C-1.66 23 -2.32 23 -3 23 C-3.48350422 15.10276444 -1.67664721 7.66467297 0 0 Z " fill="#6BA1E7" transform="translate(100,251)"/>
<path d="M0 0 C0.33 0 0.66 0 1 0 C2.53616498 7.26187082 1.07979208 12.94985735 -1 20 C-1.99 20 -2.98 20 -4 20 C-2.68 13.4 -1.36 6.8 0 0 Z " fill="#6C9CE4" transform="translate(106,220)"/>
<path d="M0 0 C1.01498547 3.17459631 0.94466465 5.30877671 0.22265625 8.546875 C0.03896484 9.39121094 -0.14472656 10.23554688 -0.33398438 11.10546875 C-0.53314453 11.97816406 -0.73230469 12.85085937 -0.9375 13.75 C-1.13279297 14.63816406 -1.32808594 15.52632812 -1.52929688 16.44140625 C-2.01161712 18.62949322 -2.50209032 20.8154173 -3 23 C-3.66 23 -4.32 23 -5 23 C-5.24491702 18.83641073 -4.35493991 15.92219448 -3 12 C-1.95306398 8.01142912 -0.97263907 4.00727297 0 0 Z " fill="#6C9BDD" transform="translate(142,159)"/>
<path d="M0 0 C0.1953125 2.05078125 0.390625 4.1015625 0.5859375 6.15234375 C0.72257812 6.76207031 0.85921875 7.37179687 1 8 C1.66 8.33 2.32 8.66 3 9 C3 9.66 3 10.32 3 11 C0.53199953 9.84826645 -1.04783565 8.95216435 -3 7 C-3.625 4.375 -3.625 4.375 -4 2 C-1 0 -1 0 0 0 Z " fill="#67A2E5" transform="translate(106,297)"/>
<path d="M0 0 C0.33 0 0.66 0 1 0 C1.33 3.96 1.66 7.92 2 12 C1.01 11.34 0.02 10.68 -1 10 C-0.67 6.7 -0.34 3.4 0 0 Z " fill="#6F9EDD" transform="translate(120,272)"/>
</svg>
