<!DOCTYPE svg PUBLIC "-//W3C//DTD SVG 1.1//EN" "http://www.w3.org/Graphics/SVG/1.1/DTD/svg11.dtd">
<!-- Uploaded to: SVG Repo, www.svgrepo.com, Transformed by: SVG Repo Mixer Tools -->
<svg fill="#fde047" version="1.1" id="Layer_1" xmlns="http://www.w3.org/2000/svg" xmlns:xlink="http://www.w3.org/1999/xlink" viewBox="-61.44 -61.44 634.88 634.88" xml:space="preserve" width="800px" height="800px" stroke="#fde047" stroke-width="0.00512">
<g id="SVGRepo_bgCarrier" stroke-width="0"/>
<g id="SVGRepo_tracerCarrier" stroke-linecap="round" stroke-linejoin="round" stroke="#60a5fa" stroke-width="92.16"> <g> <g> <path d="M370.463,385.502c0-6.42-1.572-12.573-4.443-18.038H145.98v0c-2.871,5.465-4.443,11.618-4.443,18.038 c0,13.279,6.624,25.167,17.105,32.202c-0.923,3.334-1.422,6.809-1.422,10.357c0,8.887,3.006,17.079,8.046,23.632h181.467 c5.04-6.552,8.046-14.745,8.046-23.632c0-3.548-0.499-7.023-1.422-10.357C363.84,410.669,370.463,398.781,370.463,385.502z"/> </g> </g> <g> <g> <path d="M205.594,482.11C215.38,499.905,234.296,512,256,512s40.621-12.094,50.406-29.89H205.594z"/> </g> </g> <g> <g> <path d="M256,0C157.885,0,78.063,79.822,78.063,177.936c0,46.98,18.144,91.296,51.088,124.784l2.627,2.664 c8.997,9.468,16.436,20.135,22.161,31.662h55.417v-76.901h-9.559c-22.043,0-39.976-17.934-39.976-39.977 c0-22.042,17.934-39.976,39.976-39.976s39.976,17.934,39.976,39.976v9.56h32.453v-9.56c0-22.042,17.934-39.976,39.976-39.976 s39.976,17.934,39.976,39.976c0,22.043-17.934,39.977-39.976,39.977h-9.559v76.901h55.416c5.694-11.465,13.086-22.08,22.019-31.51 l2.77-2.816c32.945-33.487,51.088-77.803,51.088-124.784C433.937,79.822,354.115,0,256,0z"/> </g> </g> <g> <g> <path d="M312.204,210.609c-5.271,0-9.559,4.288-9.559,9.559v9.56h9.559c5.27,0,9.559-4.288,9.559-9.56 C321.763,214.898,317.475,210.609,312.204,210.609z"/> </g> </g> <g> <g> <path d="M199.797,210.609c-5.271,0-9.559,4.288-9.559,9.559s4.288,9.56,9.559,9.56h9.559v-9.56 C209.356,214.898,205.068,210.609,199.797,210.609z"/> </g> </g> <g> <g> <rect x="239.769" y="260.148" width="32.455" height="76.901"/> </g> </g> </g>
<g id="SVGRepo_iconCarrier"> <g> <g> <path d="M370.463,385.502c0-6.42-1.572-12.573-4.443-18.038H145.98v0c-2.871,5.465-4.443,11.618-4.443,18.038 c0,13.279,6.624,25.167,17.105,32.202c-0.923,3.334-1.422,6.809-1.422,10.357c0,8.887,3.006,17.079,8.046,23.632h181.467 c5.04-6.552,8.046-14.745,8.046-23.632c0-3.548-0.499-7.023-1.422-10.357C363.84,410.669,370.463,398.781,370.463,385.502z"/> </g> </g> <g> <g> <path d="M205.594,482.11C215.38,499.905,234.296,512,256,512s40.621-12.094,50.406-29.89H205.594z"/> </g> </g> <g> <g> <path d="M256,0C157.885,0,78.063,79.822,78.063,177.936c0,46.98,18.144,91.296,51.088,124.784l2.627,2.664 c8.997,9.468,16.436,20.135,22.161,31.662h55.417v-76.901h-9.559c-22.043,0-39.976-17.934-39.976-39.977 c0-22.042,17.934-39.976,39.976-39.976s39.976,17.934,39.976,39.976v9.56h32.453v-9.56c0-22.042,17.934-39.976,39.976-39.976 s39.976,17.934,39.976,39.976c0,22.043-17.934,39.977-39.976,39.977h-9.559v76.901h55.416c5.694-11.465,13.086-22.08,22.019-31.51 l2.77-2.816c32.945-33.487,51.088-77.803,51.088-124.784C433.937,79.822,354.115,0,256,0z"/> </g> </g> <g> <g> <path d="M312.204,210.609c-5.271,0-9.559,4.288-9.559,9.559v9.56h9.559c5.27,0,9.559-4.288,9.559-9.56 C321.763,214.898,317.475,210.609,312.204,210.609z"/> </g> </g> <g> <g> <path d="M199.797,210.609c-5.271,0-9.559,4.288-9.559,9.559s4.288,9.56,9.559,9.56h9.559v-9.56 C209.356,214.898,205.068,210.609,199.797,210.609z"/> </g> </g> <g> <g> <rect x="239.769" y="260.148" width="32.455" height="76.901"/> </g> </g> </g>
</svg>