<?xml version="1.0" encoding="UTF-8"?>
<svg version="1.1" xmlns="http://www.w3.org/2000/svg" width="1112" height="224">
<path d="M0 0 C0.74886475 0.00523682 1.49772949 0.01047363 2.26928711 0.01586914 C3.07817383 0.0190918 3.88706055 0.02231445 4.72045898 0.02563477 C5.5705957 0.03401367 6.42073242 0.04239258 7.29663086 0.05102539 C8.15063477 0.05553711 9.00463867 0.06004883 9.88452148 0.06469727 C12.00108749 0.07652166 14.11761771 0.0944577 16.23413086 0.11352539 C17.24634315 3.29372752 17.18302829 5.47712445 16.5191803 8.73260498 C16.24357521 10.11656715 16.24357521 10.11656715 15.96240234 11.52848816 C15.75309082 12.53333755 15.5437793 13.53818695 15.328125 14.57348633 C15.11369247 15.63720963 14.89925995 16.70093292 14.67832947 17.79689026 C13.96686763 21.31561741 13.24313236 24.83170163 12.51928711 28.34790039 C12.02385608 30.78583682 11.52919119 33.22392905 11.03526306 35.66217041 C9.8658174 41.42553517 8.68864909 47.18727995 7.50773281 52.94830441 C6.03168509 60.15151379 4.5676335 67.35715177 3.10327148 74.56274414 C0.48985286 87.41498405 -2.13547317 100.26474938 -4.76586914 113.11352539 C6.78413086 112.78352539 18.33413086 112.45352539 30.23413086 112.11352539 C31.83766964 104.30580506 31.83766964 104.30580506 33.43505859 96.49682617 C33.63558838 95.52729004 33.83611816 94.55775391 34.04272461 93.55883789 C34.24696045 92.56384277 34.45119629 91.56884766 34.66162109 90.54370117 C35.23413086 88.11352539 35.23413086 88.11352539 36.23413086 86.11352539 C38.65517854 85.30454117 41.01621619 84.61596132 43.48413086 83.98852539 C44.1531543 83.80676758 44.82217773 83.62500977 45.51147461 83.43774414 C49.160218 82.48433968 52.4622725 81.8942313 56.23413086 82.11352539 C55.60227814 89.136532 54.29116087 95.81930721 52.67163086 102.67602539 C51.86725586 106.12040039 51.06288086 109.56477539 50.23413086 113.11352539 C64.42413086 113.11352539 78.61413086 113.11352539 93.23413086 113.11352539 C94.49568892 116.89819958 93.79027854 118.88579506 92.85913086 122.73852539 C92.58327148 123.90641602 92.30741211 125.07430664 92.02319336 126.27758789 C91.23413086 129.11352539 91.23413086 129.11352539 90.23413086 130.11352539 C88.88429338 130.23537682 87.52838385 130.2911937 86.17333984 130.31884766 C85.31252304 130.33879288 84.45170624 130.3587381 83.56480408 130.37928772 C82.62939285 130.39600021 81.69398163 130.41271271 80.73022461 130.42993164 C79.77720963 130.45071274 78.82419464 130.47149384 77.84230042 130.49290466 C74.78548676 130.55850716 71.7285843 130.61733457 68.67163086 130.67602539 C66.60456423 130.71920045 64.53750672 130.7628144 62.47045898 130.80688477 C57.39177491 130.9141994 52.31300116 131.0154363 47.23413086 131.11352539 C45.93448458 137.26226564 44.6535789 143.41452567 43.38891602 149.57055664 C42.95735979 151.65850354 42.52094944 153.74545388 42.0793457 155.83129883 C37.90213698 172.84155247 37.90213698 172.84155247 38.23413086 190.11352539 C41.09492035 194.41149233 43.17810844 195.97592035 48.23413086 197.11352539 C56.43665284 197.8552428 64.44707454 196.81552937 72.53100586 195.45336914 C73.86905273 195.28514648 73.86905273 195.28514648 75.23413086 195.11352539 C77.22197985 197.10137438 76.46410873 200.84052946 76.48413086 203.55102539 C76.50475586 204.24518555 76.52538086 204.9393457 76.54663086 205.65454102 C76.56225586 207.67211914 76.56225586 207.67211914 76.23413086 211.11352539 C66.55311851 217.56753362 49.15871658 215.90934131 38.16381836 213.86743164 C30.56067351 211.91088903 24.53164238 208.7551341 20.23413086 202.11352539 C12.68027602 188.04772673 18.56357864 169.41977419 21.67163086 154.80102539 C22.0981603 152.73165184 22.52329971 150.66199128 22.94702148 148.59204102 C23.72129725 144.83662529 24.4987492 141.08199841 25.29443359 137.33105469 C25.45209702 136.58655563 25.60976044 135.84205658 25.77220154 135.07499695 C26.23413086 133.11352539 26.23413086 133.11352539 27.23413086 130.11352539 C9.08413086 130.11352539 -9.06586914 130.11352539 -27.76586914 130.11352539 C-28.82772372 126.92796166 -28.72402525 125.91565206 -28.07783508 122.72909546 C-27.899879 121.83239639 -27.72192291 120.93569733 -27.53857422 120.01182556 C-27.33554687 119.03008865 -27.13251953 118.04835175 -26.92333984 117.03686523 C-26.61132881 115.48245979 -26.61132881 115.48245979 -26.29301453 113.89665222 C-25.60002898 110.45436643 -24.89597462 107.01444511 -24.19165039 103.57446289 C-23.70596287 101.17578982 -23.22087941 98.77699438 -22.7363739 96.37808228 C-21.71615337 91.33482825 -20.69086653 86.29264051 -19.66162109 81.2512207 C-18.35120159 74.83217402 -17.04965498 68.41137285 -15.75153828 61.98982811 C-14.74751898 57.02522069 -13.74044761 52.06123652 -12.73232079 47.0974617 C-12.25225207 44.73361141 -11.77268839 42.36965849 -11.29366493 40.00559616 C-9.13063085 29.34408872 -6.96256957 18.68593921 -4.50097656 8.08862305 C-4.33866452 7.38335669 -4.17635248 6.67809032 -4.00912189 5.95145226 C-2.63566326 0.1694433 -2.63566326 0.1694433 0 0 Z " fill="#FBFEFD" transform="translate(315.765869140625,5.886474609375)"/>
<path d="M0 0 C1.00546875 -0.00257812 2.0109375 -0.00515625 3.046875 -0.0078125 C4.62082031 0.00378906 4.62082031 0.00378906 6.2265625 0.015625 C7.78890625 0.00402344 7.78890625 0.00402344 9.3828125 -0.0078125 C10.39085937 -0.00523438 11.39890625 -0.00265625 12.4375 0 C13.81494385 0.00338379 13.81494385 0.00338379 15.22021484 0.00683594 C17.8515625 0.265625 17.8515625 0.265625 22.8515625 2.265625 C23.1815625 17.115625 23.5115625 31.965625 23.8515625 47.265625 C26.1615625 44.955625 28.4715625 42.645625 30.8515625 40.265625 C39.79208894 35.19487866 49.07635433 33.3462733 59.3359375 35.87890625 C65.45427067 38.57049856 69.34639048 43.70109288 71.90454102 49.75927734 C73.15828952 54.40128198 73.18778188 58.77411177 73.23046875 63.5625 C73.24746323 64.55131165 73.2644577 65.54012329 73.28196716 66.55889893 C73.33490513 69.71107641 73.37526026 72.86324443 73.4140625 76.015625 C73.45826348 79.15365307 73.50525845 82.29158927 73.55686951 85.42950439 C73.58833959 87.37730974 73.61537097 89.32519396 73.63710022 91.27313232 C73.66819639 100.32519472 73.66819639 100.32519472 74.8515625 109.265625 C77.74518899 110.71243824 80.6598634 110.69804876 83.85546875 110.984375 C85.8515625 111.265625 85.8515625 111.265625 86.8515625 112.265625 C86.8515625 114.245625 86.8515625 116.225625 86.8515625 118.265625 C72.6615625 118.265625 58.4715625 118.265625 43.8515625 118.265625 C43.5215625 116.615625 43.1915625 114.965625 42.8515625 113.265625 C45.70634576 111.36243616 47.27097558 110.8037151 50.5390625 110.140625 C51.34730469 109.97304687 52.15554688 109.80546875 52.98828125 109.6328125 C53.60316406 109.51164062 54.21804688 109.39046875 54.8515625 109.265625 C55.71454363 98.61705428 55.96033998 88.00997914 55.9765625 77.328125 C55.98107422 76.09682861 55.98558594 74.86553223 55.99023438 73.59692383 C56.52147217 60.99272709 56.52147217 60.99272709 52.8515625 49.265625 C49.310539 47.07852225 46.17912984 47.0075461 42.1015625 47.65625 C35.5672889 49.4259491 29.98347473 52.93557406 24.8515625 57.265625 C24.1915625 57.265625 23.5315625 57.265625 22.8515625 57.265625 C22.91837948 64.49252633 23.00811238 71.71887883 23.11401367 78.9453125 C23.14733016 81.40520712 23.17534086 83.86517942 23.19799805 86.32519531 C23.23142031 89.8551555 23.28373016 93.38439934 23.33984375 96.9140625 C23.34623367 98.01930267 23.3526236 99.12454285 23.35920715 100.26327515 C23.38889839 101.79463608 23.38889839 101.79463608 23.41918945 103.35693359 C23.43029251 104.25850189 23.44139557 105.16007019 23.45283508 106.08895874 C23.65020515 107.16640854 23.65020515 107.16640854 23.8515625 108.265625 C26.76662705 110.20900137 27.68127942 110.54237167 30.9765625 110.828125 C34.8515625 111.265625 34.8515625 111.265625 35.8515625 112.265625 C35.8515625 114.245625 35.8515625 116.225625 35.8515625 118.265625 C21.6615625 118.265625 7.4715625 118.265625 -7.1484375 118.265625 C-8.1484375 115.265625 -8.1484375 115.265625 -7.1484375 112.265625 C-4.33895476 111.30542204 -1.51758079 110.7372952 1.3828125 110.109375 C2.1975 109.8309375 3.0121875 109.5525 3.8515625 109.265625 C5.1675259 105.3177348 4.99070969 101.55065936 4.98095703 97.43554688 C4.98270935 96.53284561 4.98446167 95.63014435 4.98626709 94.7000885 C4.99067399 91.71149787 4.98775168 88.72296625 4.984375 85.734375 C4.98504837 83.66076649 4.98601868 81.58715805 4.98727417 79.5135498 C4.98874957 75.16576385 4.98660164 70.81799842 4.98193359 66.47021484 C4.97623641 60.89134843 4.97951625 55.31253012 4.98550606 49.73366547 C4.98911591 45.45122921 4.98797112 41.1688044 4.98537827 36.8863678 C4.98471017 34.82902521 4.98553332 32.77168159 4.98785782 30.71434021 C4.99039127 27.84143309 4.98653389 24.96860439 4.98095703 22.09570312 C4.98298126 21.2415834 4.98500549 20.38746368 4.98709106 19.50746155 C4.97507523 16.173903 4.91314819 13.45038207 3.8515625 10.265625 C1.29114184 9.23523544 1.29114184 9.23523544 -1.7109375 8.578125 C-2.72285156 8.32675781 -3.73476563 8.07539062 -4.77734375 7.81640625 C-5.95103516 7.54376953 -5.95103516 7.54376953 -7.1484375 7.265625 C-7.4784375 5.615625 -7.8084375 3.965625 -8.1484375 2.265625 C-4.85537887 0.07025258 -3.82739566 0.00942542 0 0 Z " fill="#FBFEFE" transform="translate(793.1484375,56.734375)"/>
<path d="M0 0 C1.16781006 0.00523682 2.33562012 0.01047363 3.53881836 0.01586914 C4.79887695 0.0190918 6.05893555 0.02231445 7.35717773 0.02563477 C8.6976732 0.03399136 10.03816799 0.04245632 11.37866211 0.05102539 C12.72306153 0.05603879 14.06746271 0.06060197 15.41186523 0.06469727 C18.71334151 0.07653051 22.01473014 0.09301568 25.31616211 0.11352539 C27.82808702 4.93311834 27.5726483 9.49784168 27.51147461 14.78930664 C27.50864471 15.71446579 27.50581482 16.63962494 27.50289917 17.59281921 C27.49173603 20.53735481 27.46663848 23.48158228 27.44116211 26.42602539 C27.43112732 28.42667203 27.42200234 30.42732345 27.41381836 32.42797852 C27.39180933 37.32327889 27.35730602 42.21834996 27.31616211 47.11352539 C27.91146729 46.5650293 28.50677246 46.0165332 29.12011719 45.45141602 C29.91313232 44.73147461 30.70614746 44.0115332 31.52319336 43.26977539 C32.30412354 42.5562793 33.08505371 41.8427832 33.88964844 41.10766602 C40.82148439 35.4109927 48.18794246 34.45008254 56.97631836 34.72680664 C64.36578931 35.58242959 70.0800346 38.85150298 75.31616211 44.11352539 C84.47521327 58.11428872 86.10930667 73.8437316 83.06225586 90.06665039 C80.5151881 100.46828838 76.04069168 109.89679031 66.71850586 115.74243164 C58.17289307 120.15997227 49.82924477 121.66385813 40.29663086 119.39477539 C34.69310298 117.49371532 30.55521259 115.23800694 26.31616211 111.11352539 C25.32616211 113.75352539 24.33616211 116.39352539 23.31616211 119.11352539 C19.02616211 119.11352539 14.73616211 119.11352539 10.31616211 119.11352539 C10.30585464 117.86595459 10.29554718 116.61838379 10.28492737 115.33300781 C10.18707284 103.56253621 10.08432765 91.79211605 9.97682285 80.02172852 C9.92171315 73.97080248 9.86831262 67.91987151 9.81884766 61.86889648 C9.77102737 56.02686499 9.71867886 50.18488984 9.66322136 44.34292603 C9.64287763 42.11668302 9.62415176 39.89042461 9.60708809 37.66415405 C9.5828666 34.54045055 9.55283734 31.41685186 9.52148438 28.29321289 C9.51572891 27.37755051 9.50997345 26.46188812 9.50404358 25.51847839 C9.444726 20.30210184 9.06406384 15.27760093 8.31616211 10.11352539 C2.37616211 8.62852539 2.37616211 8.62852539 -3.68383789 7.11352539 C-3.68383789 0.15582504 -3.68383789 0.15582504 0 0 Z M32.31616211 52.11352539 C31.54075325 52.70495583 31.54075325 52.70495583 30.74967957 53.30833435 C27.46384257 56.13320687 25.9330137 58.19133435 25.55566406 62.57080078 C25.52306443 64.28395097 25.52441989 65.99798436 25.55444336 67.71118164 C25.55107468 68.62306747 25.54770599 69.53495331 25.54423523 70.47447205 C25.54453321 72.39498558 25.55970105 74.31554777 25.58886719 76.23583984 C25.6285962 79.17115573 25.6095475 82.10196168 25.58374023 85.03735352 C25.5912986 86.9078137 25.60225132 88.77826389 25.61694336 90.64868164 C25.60995926 91.52275162 25.60297516 92.39682159 25.59577942 93.29737854 C25.69865239 97.74595925 25.86071253 99.54865973 28.74194336 103.12207031 C35.12974377 108.06377061 41.17170162 110.21998893 49.31616211 110.11352539 C55.99130687 109.01923936 59.03542284 106.15451108 63.00366211 100.86352539 C66.25368463 94.05395439 66.67701511 86.74377835 66.62866211 79.30102539 C66.62519775 78.42953857 66.6217334 77.55805176 66.61816406 76.66015625 C66.44590801 66.39807345 65.04067648 56.94791219 57.62866211 49.36352539 C49.69667696 43.15503331 39.48417726 46.5037744 32.31616211 52.11352539 Z " fill="#FBFEFD" transform="translate(178.683837890625,56.886474609375)"/>
<path d="M0 0 C12.36918715 -0.02312154 24.73836919 -0.04091412 37.10757351 -0.05181217 C42.85045062 -0.05704141 48.59331301 -0.0641398 54.33618164 -0.07543945 C59.87339995 -0.08626687 65.41060404 -0.09227652 70.94783211 -0.09487724 C73.06544277 -0.09673176 75.18305262 -0.10035286 77.30065727 -0.10573006 C80.25571274 -0.11293856 83.21070871 -0.11399102 86.16577148 -0.11352539 C87.05049637 -0.11712067 87.93522125 -0.12071594 88.84675598 -0.12442017 C94.88594784 -0.11405216 94.88594784 -0.11405216 96 1 C96.09880797 2.47652664 96.13079245 3.95767236 96.1328125 5.4375 C96.13410156 6.33210938 96.13539063 7.22671875 96.13671875 8.1484375 C96.13285156 9.08945313 96.12898437 10.03046875 96.125 11 C96.12886719 11.94101563 96.13273438 12.88203125 96.13671875 13.8515625 C96.13542969 14.74617188 96.13414062 15.64078125 96.1328125 16.5625 C96.13168457 17.38878906 96.13055664 18.21507813 96.12939453 19.06640625 C96 21 96 21 95 22 C93.48071962 22.07179964 91.95832518 22.08392007 90.4375 22.0625 C89.61121094 22.05347656 88.78492188 22.04445313 87.93359375 22.03515625 C86.97646484 22.01775391 86.97646484 22.01775391 86 22 C85 19 85 19 85 9 C71.14 8.505 71.14 8.505 57 8 C57.06284953 19.81328022 57.13820029 31.62629751 57.23571491 43.43934345 C57.28048927 48.9243098 57.31972974 54.40920066 57.34643555 59.89428711 C57.3723981 65.18528265 57.41275026 70.47598876 57.46318626 75.76680565 C57.47990278 77.7878275 57.49138716 79.80889946 57.49761391 81.82998085 C57.50720307 84.65560045 57.53519965 87.48047151 57.56762695 90.3059082 C57.56619186 91.14603958 57.56475677 91.98617096 57.5632782 92.85176086 C57.5074344 97.08394382 57.5074344 97.08394382 59.38795757 100.70868206 C61.47576989 102.38111292 62.91498632 102.45925779 65.5625 102.625 C69.84 102.92 69.84 102.92 72 104 C72 105.98 72 107.96 72 110 C56.16 110 40.32 110 24 110 C24 104 24 104 25 103 C26.64107242 102.79160985 28.28856293 102.63248275 29.9375 102.5 C33.60557465 102.24785057 33.60557465 102.24785057 37 101 C38.38520019 96.89860768 38.17518997 92.65768878 38.20532227 88.37597656 C38.21522186 87.50732468 38.22512146 86.63867279 38.23532104 85.74369812 C38.26687728 82.87603469 38.29167027 80.0083547 38.31640625 77.140625 C38.33698085 75.15093559 38.35797745 73.16125051 38.37937927 71.17156982 C38.43454768 65.93718976 38.48398005 60.70277059 38.53222656 55.46832275 C38.58247976 50.12598189 38.6381459 44.78369775 38.69335938 39.44140625 C38.800877 28.96098418 38.90183593 18.48051386 39 8 C29.76 8.33 20.52 8.66 11 9 C10.67 12.96 10.34 16.92 10 21 C9 22 9 22 7.1875 22.1328125 C6.465625 22.13023438 5.74375 22.12765625 5 22.125 C4.278125 22.12757812 3.55625 22.13015625 2.8125 22.1328125 C1 22 1 22 0 21 C-0.08685603 19.43827255 -0.10702219 17.87270656 -0.09765625 16.30859375 C-0.09443359 15.36435547 -0.09121094 14.42011719 -0.08789062 13.44726562 C-0.07951172 12.45404297 -0.07113281 11.46082031 -0.0625 10.4375 C-0.05798828 9.44041016 -0.05347656 8.44332031 -0.04882812 7.41601562 C-0.03700007 4.94395151 -0.02051849 2.47200482 0 0 Z " fill="#FCFEFD" transform="translate(429,65)"/>
<path d="M0 0 C6.40824465 5.66934852 8.24373 11.64060212 9 20 C9.16262962 23.6400975 9.20705782 27.27859724 9.24609375 30.921875 C9.2789982 33.01953596 9.31221035 35.1171921 9.34570312 37.21484375 C9.39327497 40.49557559 9.43781239 43.77628337 9.47680664 47.05712891 C9.51644979 50.24139921 9.56796925 53.4253051 9.62109375 56.609375 C9.6295079 57.59170105 9.63792206 58.5740271 9.64659119 59.58612061 C9.67155418 60.95839813 9.67155418 60.95839813 9.69702148 62.35839844 C9.70732895 63.1603363 9.71763641 63.96227417 9.72825623 64.78851318 C10.03800499 67.30928968 10.56060768 68.90394321 12 71 C15.52513528 71.74176007 15.52513528 71.74176007 19 72 C20 73 20 73 20.0625 76.0625 C20.041875 77.031875 20.02125 78.00125 20 79 C15.21141073 81.55391428 10.28813676 81.67905448 5 81 C0.02756379 78.60586405 -2.27352643 75.61403219 -5 71 C-5.70125 71.47050781 -6.4025 71.94101563 -7.125 72.42578125 C-16.5480361 78.60964869 -23.5146387 82.22398741 -35 81 C-41.52384472 79.55150436 -46.68665604 76.37540689 -50.48046875 70.83984375 C-53.99012821 64.63649607 -55.23905518 59.06160717 -54 52 C-51.41517933 44.10889547 -47.08474009 38.90831725 -39.9375 34.8203125 C-29.73809897 29.82989128 -19.15423469 29.70689602 -8 30 C-8.22927546 27.12198966 -8.48260357 24.24951162 -8.75 21.375 C-8.811875 20.56675781 -8.87375 19.75851563 -8.9375 18.92578125 C-9.46644647 13.50407997 -10.50906931 10.22375965 -14 6 C-17.96152575 4.01923712 -22.68221654 4.5913962 -27 5 C-30.63009888 6.14207333 -30.63009888 6.14207333 -33 9 C-34.3645529 12.32284255 -35.1665899 15.48115737 -36 19 C-39.96 19 -43.92 19 -48 19 C-48 13.72 -48 8.44 -48 3 C-34.96718648 -4.41081553 -13.43962249 -8.89042726 0 0 Z M-32 43.5 C-35.93254429 48.41568036 -36.44085918 52.08204122 -36.31640625 58.3046875 C-35.74575094 63.16582535 -33.42868138 65.73939878 -29.875 68.875 C-25.57384255 70.55806161 -21.5308973 70.9306708 -17 70 C-14.03 68.35 -11.06 66.7 -8 65 C-8 55.76 -8 46.52 -8 37 C-18.30199914 37 -24.23399112 37.02832594 -32 43.5 Z " fill="#FAFEFD" transform="translate(676,96)"/>
<path d="M0 0 C4.85464091 4.20328448 7.64036701 8.79628017 8.19934082 15.33007812 C8.29381535 18.14434171 8.32875181 20.95372105 8.34375 23.76953125 C8.3583728 24.80510666 8.37299561 25.84068207 8.38806152 26.90763855 C8.43441979 30.20922004 8.46868547 33.51074366 8.5 36.8125 C8.54136116 41.15255883 8.5951391 45.49221053 8.65625 49.83203125 C8.6615271 50.81669876 8.6668042 51.80136627 8.67224121 52.81587219 C8.42280931 62.51138268 8.42280931 62.51138268 12 71 C14.32817964 71.36760731 16.6618385 71.70241581 19 72 C19.495 75.465 19.495 75.465 20 79 C14.98628846 81.0569073 10.35409496 81.77720733 5 81 C0.56251184 78.78125592 -1.87467801 76.48679087 -4 72 C-4 71.34 -4 70.68 -4 70 C-4.90878906 70.68835938 -4.90878906 70.68835938 -5.8359375 71.390625 C-15.09828757 78.1735152 -23.28021012 82.42537985 -35 81 C-41.8394529 79.54811614 -47.45613857 75.84956021 -51.32421875 69.99609375 C-54.9147217 62.95366867 -55.27054314 55.28864563 -52.9375 47.75 C-49.55298237 40.12313769 -43.38123616 36.11192374 -35.8828125 32.99609375 C-27.202047 29.99664226 -18.10680417 29.55017259 -9 29 C-8.7489692 21.21804515 -8.73145468 13.65894406 -12.9375 6.875 C-17.56646491 4.04093985 -21.71761122 4.20104839 -27 5 C-30.63009888 6.14207333 -30.63009888 6.14207333 -33 9 C-34.3645529 12.32284255 -35.1665899 15.48115737 -36 19 C-39.96 19 -43.92 19 -48 19 C-48 13.72 -48 8.44 -48 3 C-34.95189649 -4.41950984 -13.457788 -8.87641336 0 0 Z M-33 44 C-36.87518199 49.45919798 -36.79184764 54.50684931 -36 61 C-33.88958968 65.45531067 -31.60472604 68.15810959 -27 70 C-20.50023038 71.02627941 -14.49183589 69.66531012 -9 66 C-7.92082774 62.76248322 -7.88574399 60.42248229 -7.90234375 57.01953125 C-7.90717773 55.27446289 -7.90717773 55.27446289 -7.91210938 53.49414062 C-7.92048828 52.27919922 -7.92886719 51.06425781 -7.9375 49.8125 C-7.94201172 48.58595703 -7.94652344 47.35941406 -7.95117188 46.09570312 C-7.96296935 43.06375332 -7.97943079 40.03190094 -8 37 C-9.73163188 36.96595 -11.4634613 36.94186998 -13.1953125 36.921875 C-14.15969238 36.90737305 -15.12407227 36.89287109 -16.11767578 36.87792969 C-22.6328715 37.153857 -28.36033324 39.36033324 -33 44 Z " fill="#FAFEFD" transform="translate(152,96)"/>
<path d="M0 0 C0 1.98 0 3.96 0 6 C-4.26616316 7.13764351 -7.56486311 8 -12 8 C-12.1543501 18.51867747 -12.30252478 29.03742247 -12.4429636 39.55629539 C-12.508376 44.44138708 -12.57586102 49.32643127 -12.64819336 54.21142578 C-12.71800798 58.93165965 -12.78223366 63.6519404 -12.84269524 68.37230301 C-12.86664529 70.16710767 -12.89255959 71.96188731 -12.92053413 73.75663376 C-13.05689808 82.58282181 -13.16616416 91.22824669 -12 100 C-0.35915468 101.63380285 11.34096527 101.35739282 23 100 C23.18175781 98.73542969 23.18175781 98.73542969 23.3671875 97.4453125 C23.53476563 96.34960938 23.70234375 95.25390625 23.875 94.125 C24.03742188 93.03445312 24.19984375 91.94390625 24.3671875 90.8203125 C25 88 25 88 27 86 C30.5625 85.8125 30.5625 85.8125 34 86 C35 87 35 87 35.11352539 89.22485352 C35.10567017 90.66235962 35.10567017 90.66235962 35.09765625 92.12890625 C35.09282227 93.68061523 35.09282227 93.68061523 35.08789062 95.26367188 C35.07532227 96.8965918 35.07532227 96.8965918 35.0625 98.5625 C35.05798828 99.65498047 35.05347656 100.74746094 35.04882812 101.87304688 C35.03699826 104.58208495 35.02051543 107.29101599 35 110 C31.47966564 111.17344479 28.35603332 111.09717342 24.69873047 111.03759766 C23.58857574 111.02559578 23.58857574 111.02559578 22.45599365 111.01335144 C20.00963022 110.98546945 17.56344494 110.94999709 15.1171875 110.9140625 C13.41993602 110.8922966 11.72268046 110.87084692 10.02542114 110.84970093 C6.46952963 110.8042081 2.9137144 110.7549811 -0.64208984 110.703125 C-5.20992032 110.63679609 -9.77781117 110.5795699 -14.34579659 110.52509499 C-17.84928535 110.48234984 -21.35269807 110.43490172 -24.8561058 110.38599777 C-26.54107645 110.36303412 -28.22606766 110.34153279 -29.91107559 110.32149124 C-32.25998741 110.29283095 -34.6087213 110.25788034 -36.95751953 110.22119141 C-37.65986725 110.2138649 -38.36221497 110.20653839 -39.08584595 110.19898987 C-43.88572414 110.11427586 -43.88572414 110.11427586 -45 109 C-45.125 106.5 -45.125 106.5 -45 104 C-43.26394487 102.26394487 -40.79450504 102.34388018 -38.4375 101.9375 C-36.91962891 101.67259766 -36.91962891 101.67259766 -35.37109375 101.40234375 C-34.58863281 101.26957031 -33.80617188 101.13679688 -33 101 C-31.69393996 97.03425755 -31.85968908 93.02287817 -31.87060547 88.8984375 C-31.86885315 88.08497864 -31.86710083 87.27151978 -31.86529541 86.43341064 C-31.86089789 83.747252 -31.86380751 81.06115931 -31.8671875 78.375 C-31.86651386 76.50699857 -31.86554333 74.63899722 -31.86428833 72.77099609 C-31.8628142 68.85708786 -31.86495678 64.94320246 -31.86962891 61.02929688 C-31.87532602 56.01217837 -31.87204549 50.99511337 -31.86605644 45.97799683 C-31.86244316 42.12100827 -31.86359296 38.2640324 -31.86618423 34.40704346 C-31.86685138 32.55706781 -31.8660325 30.70709101 -31.86370468 28.8571167 C-31.86116561 26.27190092 -31.86503652 23.68677182 -31.87060547 21.1015625 C-31.86858124 20.33676575 -31.86655701 19.57196899 -31.86447144 18.78399658 C-31.87846572 15.27772926 -32.14211317 12.4315473 -33 9 C-38.94 7.515 -38.94 7.515 -45 6 C-45 1 -45 1 -44 0 C-41.09148972 -0.17285079 -38.20452226 -0.28414508 -35.29296875 -0.3515625 C-33.97755852 -0.38629166 -33.97755852 -0.38629166 -32.63557434 -0.42172241 C-30.77525794 -0.4694443 -28.91487607 -0.5146681 -27.05444336 -0.55761719 C-24.20986993 -0.62447423 -21.3657453 -0.70231812 -18.52148438 -0.78125 C-16.71616232 -0.82618796 -14.91082403 -0.87047979 -13.10546875 -0.9140625 C-12.25429977 -0.93796051 -11.4031308 -0.96185852 -10.52616882 -0.98648071 C-9.72886856 -1.0033493 -8.9315683 -1.0202179 -8.11010742 -1.03759766 C-7.41141037 -1.05456696 -6.71271332 -1.07153625 -5.99284363 -1.08901978 C-3.87813359 -0.99455626 -2.03113938 -0.5798785 0 0 Z " fill="#FBFEFD" transform="translate(50,65)"/>
<path d="M0 0 C7.61264141 5.81392278 10.98803373 13.71016585 12.5625 22.95703125 C13.07814819 26.9509609 13.53554298 30.92695636 13.5625 34.95703125 C12.5625 35.95703125 12.5625 35.95703125 10.61997986 36.07728577 C9.76948563 36.07506516 8.91899139 36.07284454 8.04272461 36.07055664 C6.60134377 36.07044334 6.60134377 36.07044334 5.13084412 36.07032776 C4.086064 36.06516647 3.04128387 36.06000519 1.96484375 36.0546875 C0.90084854 36.05327255 -0.16314667 36.0518576 -1.25938416 36.05039978 C-4.67295083 36.04478189 -8.086453 36.03222636 -11.5 36.01953125 C-13.80794176 36.01451856 -16.11588455 36.00995525 -18.42382812 36.00585938 C-24.09507426 35.99480665 -29.76628253 35.97805112 -35.4375 35.95703125 C-35.03788714 38.96018245 -34.61842233 41.9583449 -34.1875 44.95703125 C-34.07792969 45.79621094 -33.96835937 46.63539063 -33.85546875 47.5 C-32.82180709 54.51801865 -30.82601909 61.59677008 -25.1875 66.33203125 C-24.40632812 67.02425781 -24.40632812 67.02425781 -23.609375 67.73046875 C-17.51860904 71.17021787 -11.69910153 71.21989906 -5 70.26953125 C-3.89120483 70.12668701 -3.89120483 70.12668701 -2.76000977 69.98095703 C2.61710036 69.23264205 7.50841382 67.97866572 12.5625 65.95703125 C13.6875 73.70703125 13.6875 73.70703125 12.5625 75.95703125 C10.05078125 76.9921875 10.05078125 76.9921875 6.875 78.01953125 C5.83988281 78.36113281 4.80476562 78.70273438 3.73828125 79.0546875 C-9.74162748 82.88477227 -22.44436371 82.03524267 -34.828125 75.7421875 C-43.79630728 70.48024382 -49.91726944 61.49049827 -52.8125 51.58984375 C-55.20871393 37.66185028 -54.96365287 22.58389933 -46.6875 10.64453125 C-34.83721974 -3.60543076 -16.91413497 -9.81295602 0 0 Z M-30.4375 8.95703125 C-33.92473591 15.14474863 -35.50923348 21.85541696 -35.4375 28.95703125 C-34.33482294 30.2859016 -34.33482294 30.2859016 -31.57006836 30.07055664 C-30.31846924 30.06531982 -29.06687012 30.06008301 -27.77734375 30.0546875 C-27.11287735 30.05327255 -26.44841095 30.0518576 -25.7638092 30.05039978 C-23.63416101 30.04478643 -21.50461661 30.03223179 -19.375 30.01953125 C-17.93424631 30.01451796 -16.49349097 30.00995476 -15.05273438 30.00585938 C-11.51428898 29.9948127 -7.97590461 29.97753917 -4.4375 29.95703125 C-4.27379706 21.82139926 -4.10662318 13.2226748 -8.62109375 6.0859375 C-11.46963259 3.23739866 -14.51704423 2.55682583 -18.375 2.26953125 C-23.92986541 2.59530531 -27.12209933 4.53061866 -30.4375 8.95703125 Z " fill="#F9FDFD" transform="translate(943.4375,96.04296875)"/>
<path d="M0 0 C8.21579556 6.25755038 12.57382834 13.39110949 14.1796875 23.66015625 C14.1796875 27.95015625 14.1796875 32.24015625 14.1796875 36.66015625 C-1.6603125 36.66015625 -17.5003125 36.66015625 -33.8203125 36.66015625 C-32.19478171 54.14388014 -32.19478171 54.14388014 -22.8203125 67.66015625 C-14.03671274 73.38859088 -4.58085731 71.59227775 5.1796875 69.66015625 C8.26957605 68.80347113 11.17776621 67.79881605 14.1796875 66.66015625 C15.3046875 74.41015625 15.3046875 74.41015625 14.1796875 76.66015625 C12.12505443 77.42919264 10.03396825 78.1022237 7.9296875 78.72265625 C6.79015625 79.06425781 5.650625 79.40585938 4.4765625 79.7578125 C-8.86071712 83.40818168 -21.71871767 82.64695515 -33.9453125 76.09765625 C-43.0615085 70.30686508 -48.84081503 61.24282143 -51.53515625 50.921875 C-54.09531068 38.28843318 -53.04296628 24.69519232 -46.50390625 13.3828125 C-36.19881903 -1.24648026 -16.71692734 -10.10332814 0 0 Z M-26.8203125 6.66015625 C-30.64019551 12.08841105 -32.9612108 17.77925038 -33.5078125 24.41015625 C-33.59417969 25.374375 -33.68054688 26.33859375 -33.76953125 27.33203125 C-33.78628906 28.1003125 -33.80304687 28.86859375 -33.8203125 29.66015625 C-31.96317193 31.51729682 -28.89524201 30.79064306 -26.4140625 30.79296875 C-24.46306641 30.79490234 -24.46306641 30.79490234 -22.47265625 30.796875 C-21.79187012 30.79478027 -21.11108398 30.79268555 -20.40966797 30.79052734 C-18.32902735 30.78517865 -16.24860261 30.79047305 -14.16796875 30.796875 C-12.86730469 30.79558594 -11.56664062 30.79429688 -10.2265625 30.79296875 C-9.02322266 30.79184082 -7.81988281 30.79071289 -6.58007812 30.78955078 C-3.91046768 30.97471602 -3.91046768 30.97471602 -2.8203125 29.66015625 C-2.31809938 22.00140618 -2.79768926 13.44847029 -7.00390625 6.78515625 C-9.94452871 3.85286416 -12.92242086 3.32517257 -16.8828125 3.16015625 C-20.96680146 3.39895021 -23.71188128 3.82599837 -26.8203125 6.66015625 Z " fill="#F9FDFD" transform="translate(589.8203125,95.33984375)"/>
<path d="M0 0 C0 6.93 0 13.86 0 21 C-7 22 -7 22 -10 21 C-10.09796875 20.18015625 -10.1959375 19.3603125 -10.296875 18.515625 C-10.44640625 17.43796875 -10.5959375 16.3603125 -10.75 15.25 C-10.88921875 14.18265625 -11.0284375 13.1153125 -11.171875 12.015625 C-12.11959263 8.56450232 -13.25907004 7.23877485 -16 5 C-19.95674882 3.02162559 -24.68741495 3.58029849 -29 4 C-32.44261039 5.44952017 -34.25024708 6.41980326 -35.87109375 9.8359375 C-36.89711917 13.16255408 -37.03304165 15.71914593 -36.625 19.1875 C-32.38724497 26.52207601 -21.88290309 29.39185954 -14.421875 32.51757812 C-5.80376625 36.25165132 2.09814376 40.74535939 5.75 49.875 C6.73660525 58.26114464 5.55853328 64.16220008 0.875 71.1875 C-5.10016328 77.77274001 -13.64721859 80.58480812 -22.2734375 81.25390625 C-33.26432307 81.61105243 -44.08982833 79.95508584 -54 75 C-54 67.74 -54 60.48 -54 53 C-50.7 53 -47.4 53 -44 53 C-43 55 -43 55 -42.81640625 57.86328125 C-42.45284242 64.51598209 -42.45284242 64.51598209 -39.06640625 69.96875 C-32.84066647 73.39539718 -25.97091284 74.28385157 -19 73 C-15.7830415 71.33963432 -13.64270424 69.28540848 -12 66 C-11.72562243 63.73088392 -11.72562243 63.73088392 -11.6875 61.1875 C-11.65011719 60.33542969 -11.61273437 59.48335937 -11.57421875 58.60546875 C-12.15675035 55.04080293 -13.44431849 53.53050238 -16 51 C-18.98122579 49.36274337 -18.98122579 49.36274337 -22.375 48.125 C-23.62619705 47.61621516 -24.87616519 47.10439957 -26.125 46.58984375 C-26.764375 46.32929199 -27.40375 46.06874023 -28.0625 45.80029297 C-37.38389191 41.95005069 -46.70726226 38.09598918 -52 29 C-54.30626005 22.63508546 -54.87573798 16.23715615 -52 10 C-48.41617916 3.53222906 -43.7703943 -0.13181478 -37 -3 C-24.72596971 -6.50731719 -11.81208982 -3.70575367 0 0 Z " fill="#F9FDFD" transform="translate(1102,96)"/>
<path d="M0 0 C0.97066406 -0.01417969 1.94132812 -0.02835937 2.94140625 -0.04296875 C5.4375 0.1875 5.4375 0.1875 7.4375 2.1875 C7.69628906 4.31054687 7.69628906 4.31054687 7.703125 6.90625 C7.70699219 8.30423828 7.70699219 8.30423828 7.7109375 9.73046875 C7.70320313 10.70628906 7.69546875 11.68210937 7.6875 12.6875 C7.69910156 14.15123047 7.69910156 14.15123047 7.7109375 15.64453125 C7.70835938 16.57652344 7.70578125 17.50851563 7.703125 18.46875 C7.70086914 19.32533203 7.69861328 20.18191406 7.69628906 21.06445312 C7.4375 23.1875 7.4375 23.1875 5.4375 25.1875 C2.38366121 25.15442593 -0.53120896 24.62054158 -3.5625 24.1875 C-4.2225 21.2175 -4.8825 18.2475 -5.5625 15.1875 C-12.11089407 15.38898905 -15.46105013 16.20303218 -20.25 20.71484375 C-22.62793364 23.38294191 -22.69535234 25.29726108 -22.72363281 28.77319336 C-22.73324036 29.72435532 -22.7428479 30.67551727 -22.75274658 31.65550232 C-22.7591214 33.20081383 -22.7591214 33.20081383 -22.765625 34.77734375 C-22.77417511 36.36054161 -22.77417511 36.36054161 -22.78289795 37.97572327 C-22.79235489 40.21093745 -22.79888468 42.44616561 -22.80273438 44.68139648 C-22.81245039 48.10750502 -22.84347193 51.53301647 -22.875 54.95898438 C-22.88152881 57.12760059 -22.88677976 59.29622111 -22.890625 61.46484375 C-22.9029718 62.49302719 -22.9153186 63.52121063 -22.92803955 64.58055115 C-22.92503845 65.53486526 -22.92203735 66.48917938 -22.91894531 67.47241211 C-22.92259094 68.31243271 -22.92623657 69.15245331 -22.92999268 70.01792908 C-22.47694638 72.69258394 -21.70231952 73.5666558 -19.5625 75.1875 C-17.09273228 75.72666077 -17.09273228 75.72666077 -14.4375 75.8125 C-9.64583333 76.10416667 -9.64583333 76.10416667 -8.5625 77.1875 C-8.5625 79.1675 -8.5625 81.1475 -8.5625 83.1875 C-23.4125 83.1875 -38.2625 83.1875 -53.5625 83.1875 C-54.5625 80.1875 -54.5625 80.1875 -53.5625 77.1875 C-51.09375 76.30859375 -51.09375 76.30859375 -48.0625 75.625 C-46.2150318 75.20360584 -44.37639201 74.73568572 -42.5625 74.1875 C-41.25089703 71.56429406 -41.43540374 69.62133754 -41.43310547 66.68383789 C-41.42995331 65.53246841 -41.42680115 64.38109894 -41.42355347 63.19483948 C-41.4255777 61.94589401 -41.42760193 60.69694855 -41.4296875 59.41015625 C-41.42873077 58.13273056 -41.42777405 56.85530487 -41.42678833 55.53916931 C-41.42610671 52.8331262 -41.42746045 50.1271729 -41.43212891 47.42114258 C-41.43782041 43.95308582 -41.43454988 40.48510655 -41.42855644 37.01705265 C-41.42407232 33.71058441 -41.42721298 30.4041255 -41.4296875 27.09765625 C-41.42766327 25.85073502 -41.42563904 24.60381378 -41.42355347 23.31910706 C-41.42828171 21.5873246 -41.42828171 21.5873246 -41.43310547 19.82055664 C-41.43390106 18.80288712 -41.43469666 17.78521759 -41.43551636 16.73670959 C-41.45419949 14.06467158 -41.45419949 14.06467158 -42.5625 11.1875 C-45.12292066 10.15711044 -45.12292066 10.15711044 -48.125 9.5 C-49.13691406 9.24863281 -50.14882813 8.99726562 -51.19140625 8.73828125 C-51.97386719 8.55652344 -52.75632812 8.37476562 -53.5625 8.1875 C-54.6875 4.4375 -54.6875 4.4375 -53.5625 2.1875 C-43.89014302 0.51985225 -32.81042634 -0.40654818 -23.5625 3.1875 C-23.2325 6.1575 -22.9025 9.1275 -22.5625 12.1875 C-21.6034375 10.8571875 -21.6034375 10.8571875 -20.625 9.5 C-15.49320172 3.29478832 -7.92521371 0.05276441 0 0 Z " fill="#FAFEFD" transform="translate(1023.5625,91.8125)"/>
<path d="M0 0 C1 1 1 1 1.11352539 2.94946289 C1.10567017 4.1984436 1.10567017 4.1984436 1.09765625 5.47265625 C1.09282227 6.82133789 1.09282227 6.82133789 1.08789062 8.19726562 C1.07532227 9.61555664 1.07532227 9.61555664 1.0625 11.0625 C1.05798828 12.01189453 1.05347656 12.96128906 1.04882812 13.93945312 C1.0370011 16.29303065 1.02052025 18.64648477 1 21 C-1.98594424 22.49297212 -4.70853624 22.11755228 -8 22 C-8.66 21.67 -9.32 21.34 -10 21 C-10.85902832 17.98665458 -11.47476089 14.94827691 -12.12109375 11.8828125 C-13.01137259 8.96269792 -13.58490622 7.79203519 -16 6 C-21.47578663 4.17473779 -26.90740347 4.19872977 -32.25 6.5 C-38.2221072 9.90754427 -40.69325938 15.49402333 -42.8125 21.8125 C-44.11554022 27.09869727 -44.28057641 32.27148054 -44.3125 37.6875 C-44.31805908 38.48325439 -44.32361816 39.27900879 -44.3293457 40.09887695 C-44.2201075 49.08722043 -42.37841849 58.1446296 -36.20703125 64.98828125 C-30.48482997 70.33416755 -25.1982803 72.40103055 -17.25 72.19921875 C-12.02284162 71.73639744 -6.79068393 70.77465537 -1.734375 69.37109375 C-1.16203125 69.24863281 -0.5896875 69.12617188 0 69 C1 70 1 70 1.0625 73.5625 C1.041875 74.696875 1.02125 75.83125 1 77 C-0.53836708 77.65365399 -2.08088766 78.29753603 -3.625 78.9375 C-4.48351562 79.29714844 -5.34203125 79.65679687 -6.2265625 80.02734375 C-17.70725516 84.05367118 -31.08544097 83.18361063 -42 78 C-50.89623369 72.83345879 -57.9155867 64.85772291 -61 55 C-64.16715298 41.46268325 -64.30617821 27.12037405 -57.375 14.625 C-44.16564137 -5.2053458 -21.12121484 -6.30045512 0 0 Z " fill="#F9FDFD" transform="translate(771,95)"/>
<path d="M0 0 C31.35 0 62.7 0 95 0 C94.67 0.66 94.34 1.32 94 2 C63.97 2 33.94 2 3 2 C1.64172299 4.71655403 1.8676555 6.90789406 1.875 9.9375 C1.87242187 10.99839844 1.86984375 12.05929688 1.8671875 13.15234375 C1.87430654 16.07573057 1.87430654 16.07573057 3 19 C4.32 19.33 5.64 19.66 7 20 C7.33 16.7 7.66 13.4 8 10 C8.99 9.67 9.98 9.34 11 9 C10.85966889 10.97956441 10.7125877 12.95865141 10.5625 14.9375 C10.48128906 16.03964844 10.40007812 17.14179687 10.31640625 18.27734375 C10 21 10 21 9 22 C7.1875 22.1328125 7.1875 22.1328125 5 22.125 C4.278125 22.12757812 3.55625 22.13015625 2.8125 22.1328125 C1 22 1 22 0 21 C0 14.07 0 7.14 0 0 Z " fill="#E8FEFE" transform="translate(429,65)"/>
<path d="M0 0 C0.33 0 0.66 0 1 0 C1 32.67 1 65.34 1 99 C4.63 99 8.26 99 12 99 C12 97.35 12 95.7 12 94 C13.5 92.1875 13.5 92.1875 15 91 C14.125 98.875 14.125 98.875 13 100 C8.71 100 4.42 100 0 100 C0 67 0 34 0 0 Z " fill="#E8FEFE" transform="translate(189,76)"/>
<path d="M0 0 C0.66 0 1.32 0 2 0 C2.33 0.99 2.66 1.98 3 3 C39.63 3.495 39.63 3.495 77 4 C77 4.33 77 4.66 77 5 C51.92 5 26.84 5 1 5 C0.67 3.35 0.34 1.7 0 0 Z " fill="#E7FEFE" transform="translate(5,170)"/>
<path d="M0 0 C0.99 0.33 1.98 0.66 3 1 C3 2.32 3 3.64 3 5 C7.78735926 4.88173257 12.57451171 4.75748287 17.36157227 4.62768555 C18.99011004 4.58437251 20.61869216 4.54269482 22.24731445 4.50268555 C24.58818935 4.44489497 26.92884176 4.38122602 29.26953125 4.31640625 C29.99775589 4.29969376 30.72598053 4.28298126 31.47627258 4.26576233 C34.56166939 4.17532762 37.05171978 3.98276007 40 3 C40.99 3.33 41.98 3.66 43 4 C43.99 4 44.98 4 46 4 C46 2.68 46 1.36 46 0 C46.66 0 47.32 0 48 0 C48 1.98 48 3.96 48 6 C32.16 6 16.32 6 0 6 C0 4.02 0 2.04 0 0 Z " fill="#E7FEFF" transform="translate(453,169)"/>
<path d="M0 0 C3.3 0 6.6 0 10 0 C10.33 1.32 10.66 2.64 11 4 C10.34 4 9.68 4 9 4 C9 3.34 9 2.68 9 2 C6.69 2 4.38 2 2 2 C1.67 7.94 1.34 13.88 1 20 C3.31 20.66 5.62 21.32 8 22 C8 22.66 8 23.32 8 24 C9.65 24 11.3 24 13 24 C13 24.66 13 25.32 13 26 C11.58194169 25.71517632 10.16559621 25.42181856 8.75 25.125 C7.96109375 24.96257812 7.1721875 24.80015625 6.359375 24.6328125 C4 24 4 24 0 22 C0 14.74 0 7.48 0 0 Z " fill="#EDFEFE" transform="translate(1048,149)"/>
<path d="M0 0 C3.4375 0.1875 3.4375 0.1875 4.4375 1.1875 C4.50929964 2.70678038 4.52142007 4.22917482 4.5 5.75 C4.49097656 6.57628906 4.48195313 7.40257812 4.47265625 8.25390625 C4.46105469 8.89199219 4.44945313 9.53007812 4.4375 10.1875 C2.07796906 7.82796906 1.94608587 6.40854383 1.4375 3.1875 C0.1175 3.5175 -1.2025 3.8475 -2.5625 4.1875 C-3.5525 7.6525 -3.5525 7.6525 -4.5625 11.1875 C-4.8925 11.1875 -5.2225 11.1875 -5.5625 11.1875 C-5.61649736 9.72957116 -5.65529177 8.27107288 -5.6875 6.8125 C-5.72230469 5.59433594 -5.72230469 5.59433594 -5.7578125 4.3515625 C-5.3962823 0.34580787 -3.78358432 0.19913602 0 0 Z " fill="#EAFEFE" transform="translate(80.5625,150.8125)"/>
<path d="M0 0 C0.99 0 1.98 0 3 0 C2.67 1.32 2.34 2.64 2 4 C5.3 4.66 8.6 5.32 12 6 C11.67 6.99 11.34 7.98 11 9 C7.37 8.01 3.74 7.02 0 6 C-1 2 -1 2 0 0 Z " fill="#EBFEFE" transform="translate(970,94)"/>
<path d="M0 0 C1.32 0 2.64 0 4 0 C4 0.99 4 1.98 4 3 C-4.58 3 -13.16 3 -22 3 C-22 2.67 -22 2.34 -22 2 C-21.36908447 1.97494385 -20.73816895 1.9498877 -20.08813477 1.92407227 C-17.24603175 1.80845863 -14.40428917 1.68557684 -11.5625 1.5625 C-10.56927734 1.52318359 -9.57605469 1.48386719 -8.55273438 1.44335938 C-7.60849609 1.40146484 -6.66425781 1.35957031 -5.69140625 1.31640625 C-4.81685791 1.27974854 -3.94230957 1.24309082 -3.04125977 1.20532227 C-1.0072598 1.21818934 -1.0072598 1.21818934 0 0 Z " fill="#EEFEFF" transform="translate(464,70)"/>
<path d="M0 0 C0.66 0.33 1.32 0.66 2 1 C1.071875 1.886875 0.14375 2.77375 -0.8125 3.6875 C-3.40030377 6.2570798 -5.15977034 8.84532058 -7 12 C-7.99 12.66 -8.98 13.32 -10 14 C-8.38798165 8.2683792 -4.12110332 4.12110332 0 0 Z " fill="#EAFEFF" transform="translate(723,99)"/>
<path d="M0 0 C0.66 0.66 1.32 1.32 2 2 C3.6476038 2.71247732 5.31763529 3.37400383 7 4 C11.77777778 5.77777778 11.77777778 5.77777778 14 8 C7.83543922 7.61471495 4.01372252 5.52913975 -1 2 C-0.67 1.34 -0.34 0.68 0 0 Z " fill="#EBFEFE" transform="translate(341,211)"/>
<path d="M0 0 C0.33 0 0.66 0 1 0 C0.03644647 9.41002278 0.03644647 9.41002278 -1 14 C-1.99 13.01 -2.98 12.02 -4 11 C-3.52269162 9.5410574 -3.04308958 8.08286504 -2.5625 6.625 C-2.29566406 5.81289062 -2.02882813 5.00078125 -1.75390625 4.1640625 C-1 2 -1 2 0 0 Z " fill="#EEFDFF" transform="translate(312,105)"/>
<path d="M0 0 C0.66 1.32 1.32 2.64 2 4 C1.67 4.99 1.34 5.98 1 7 C1.66 7.33 2.32 7.66 3 8 C2.67 8.66 2.34 9.32 2 10 C0.68 9.67 -0.64 9.34 -2 9 C-1.34 6.03 -0.68 3.06 0 0 Z " fill="#EAFDFE" transform="translate(348,109)"/>
<path d="M0 0 C0.99 0.495 0.99 0.495 2 1 C2.37890625 2.99609375 2.37890625 2.99609375 2.5625 5.4375 C2.8061175 8.84628205 2.8061175 8.84628205 4 12 C3.01 12 2.02 12 1 12 C0.67 8.04 0.34 4.08 0 0 Z " fill="#EDFEFE" transform="translate(1091,105)"/>
<path d="M0 0 C0.99 0.495 0.99 0.495 2 1 C2.53417154 4.36528073 3 7.59627516 3 11 C2.34 11 1.68 11 1 11 C0.67 7.37 0.34 3.74 0 0 Z " fill="#EDFDFE" transform="translate(1019,105)"/>
<path d="M0 0 C3.82669043 3.42388092 5.72278474 6.00724943 7 11 C4.24282298 9.62141149 3.53678254 7.62533685 2 5 C1.34 4.34 0.68 3.68 0 3 C0 2.01 0 1.02 0 0 Z " fill="#EAFEFF" transform="translate(152,97)"/>
<path d="M0 0 C0.33 0 0.66 0 1 0 C1.1875 2.375 1.1875 2.375 1 5 C-2.22791555 7.1519437 -3.28400809 7.20086443 -7 7 C-6.67 6.34 -6.34 5.68 -6 5 C-2.9375 4.375 -2.9375 4.375 0 4 C0 2.68 0 1.36 0 0 Z " fill="#ECFEFF" transform="translate(391,212)"/>
<path d="M0 0 C0.99 0.495 0.99 0.495 2 1 C2.625 3.5625 2.625 3.5625 3 6 C3.99 6.33 4.98 6.66 6 7 C5.67 7.99 5.34 8.98 5 10 C2.08772731 6.71195019 0.50298788 4.40114397 0 0 Z " fill="#EAFEFE" transform="translate(148,165)"/>
<path d="M0 0 C0 4.38968456 -2.12805101 5.76905739 -5 9 C-5.33 8.34 -5.66 7.68 -6 7 C-4.02 4.69 -2.04 2.38 0 0 Z " fill="#EDFEFF" transform="translate(902,101)"/>
<path d="M0 0 C2.31 1.98 4.62 3.96 7 6 C6.67 6.66 6.34 7.32 6 8 C1.3125 4.38671875 1.3125 4.38671875 0 3 C0 2.01 0 1.02 0 0 Z " fill="#E8FEFE" transform="translate(591,97)"/>
</svg>
